<?xml version="1.0" encoding="UTF-8"?>
<svg version="1.1" xmlns="http://www.w3.org/2000/svg" width="790" height="790">
<path d="M0 0 C260.7 0 521.4 0 790 0 C790 260.7 790 521.4 790 790 C529.3 790 268.6 790 0 790 C0 529.3 0 268.6 0 0 Z " fill="#FEF2D4" transform="translate(0,0)"/>
<path d="M0 0 C260.7 0 521.4 0 790 0 C790 260.7 790 521.4 790 790 C529.3 790 268.6 790 0 790 C0 529.3 0 268.6 0 0 Z M165 119 C164.08992188 119.43828125 163.17984375 119.8765625 162.2421875 120.328125 C137.00759264 133.12934805 118.97781944 156.5219715 109.87109375 182.9921875 C108.29609203 188.43053424 107.05896791 193.9470142 105.83203125 199.47265625 C105 203 105 203 104 205 C104.020625 206.051875 104.04125 207.10375 104.0625 208.1875 C104 212 104 212 103.00390625 215.1796875 C101.84812897 219.57793723 101.77445782 223.42470291 101.875 227.9375 C101.88402344 228.71673828 101.89304687 229.49597656 101.90234375 230.29882812 C101.92566309 232.19935447 101.96152414 234.09972008 102 236 C101.67 236 101.34 236 101 236 C101.00092179 236.76145356 101.00184359 237.52290712 101.00279331 238.30743504 C101.02488812 256.84457998 101.04143087 275.38172229 101.05181217 293.9188776 C101.05696606 302.88334183 101.0639915 311.84779727 101.07543945 320.81225586 C101.08541398 328.62666071 101.09186003 336.44105918 101.09408849 344.25547022 C101.09539089 348.39222053 101.09844698 352.52895263 101.10573006 356.6656971 C101.11253394 360.56194855 101.11460807 364.45817432 101.11310768 368.35443115 C101.11338205 369.78183062 101.1153612 371.20923097 101.11920547 372.63662529 C101.12421095 374.59161121 101.12238179 376.546611 101.12025452 378.50160217 C101.12117631 379.59392686 101.1220981 380.68625154 101.12304783 381.81167698 C101 385 101 385 100.46552181 388.47461224 C99.98562685 392.10884762 100.10652673 395.25889455 100.43139648 398.90460205 C101.05854284 407.11767414 101.12734371 415.29324082 101.09765625 423.52636719 C101.09573127 425.1197505 101.09427022 426.71313442 101.0932312 428.30651855 C101.09010045 431.70302238 101.08387927 435.09950053 101.07516479 438.49599457 C101.06152334 443.86640727 101.05572453 449.23681182 101.05102539 454.60723877 C101.0399872 465.98817047 101.02040556 477.36908183 101 488.75 C100.97794855 501.08148097 100.95741724 513.4129541 100.94658184 525.74445081 C100.94159899 531.08502061 100.93174105 536.42555254 100.91815186 541.76610708 C100.91070941 545.076752 100.90738036 548.38739167 100.9051857 551.69804382 C100.90330947 553.23517926 100.89970019 554.77231368 100.89425278 556.30944061 C100.88706468 558.40299391 100.88599773 560.49646336 100.88647461 562.59002686 C100.884254 563.7624229 100.88203339 564.93481895 100.87974548 566.14274216 C100.87143835 569.07440803 100.87143835 569.07440803 102 572 C102 574 102 576 102 578 C102.495 579.485 102.495 579.485 103 581 C103.16314534 582.35384737 103.29703932 583.71137039 103.41015625 585.0703125 C103.93811318 590.15228388 105.10548907 594.9508313 106.4375 599.875 C106.76331055 601.13570312 106.76331055 601.13570312 107.09570312 602.421875 C108.08189293 606.12971176 108.84321562 608.76482343 111 612 C111.350625 613.216875 111.70125 614.43375 112.0625 615.6875 C115.97366489 627.73546019 123.52395826 638.74218742 132 648 C132.85851562 648.96292969 133.71703125 649.92585937 134.6015625 650.91796875 C155.14936465 673.17838884 186.34257047 685.57247758 216.35546875 687.1796875 C218.57111342 687.18593756 220.78693574 687.10708375 223 687 C223.33 687.66 223.66 688.32 224 689 C224.70593638 688.83742264 225.41187277 688.67484527 226.13920116 688.50734133 C229.08600196 687.98474819 231.78151219 687.8781658 234.77278137 687.8825388 C236.51346941 687.88140232 236.51346941 687.88140232 238.28932285 687.88024288 C239.56001086 687.88451997 240.83069887 687.88879705 242.13989258 687.89320374 C243.50692438 687.8942 244.87395657 687.89474948 246.24098873 687.89489073 C249.99728995 687.89653653 253.75355647 687.90440641 257.50984669 687.91325247 C261.56200109 687.92168142 265.61415951 687.92428161 269.6663208 687.92750549 C276.69162617 687.93380678 283.71691993 687.94355011 290.74221802 687.95540047 C300.92249371 687.9723901 311.10276653 687.9819347 321.28305328 687.9892792 C337.82998165 688.00123159 354.3769055 688.01617862 370.92382812 688.03442383 C371.91435743 688.03551395 372.90488674 688.03660407 373.92543209 688.03772723 C387.95140194 688.05330456 401.97736618 688.07189295 416.00333059 688.0917251 C416.98900884 688.09311842 417.97468709 688.09451173 418.99023438 688.09594727 C419.97470381 688.0973408 420.95917325 688.09873433 421.9734751 688.10017008 C438.43914211 688.1232747 454.90480553 688.13854703 471.37048626 688.14750665 C481.51181353 688.15333511 491.65309118 688.16563737 501.7943989 688.18647944 C508.76118292 688.20027936 515.7279498 688.20668538 522.69474733 688.20748956 C526.7033921 688.20818757 530.71196309 688.21203877 534.72058868 688.2249527 C550.58179344 688.27400636 566.2776256 688.11911009 582.05026054 686.21972644 C585.54172876 685.82625444 589.04354151 685.6311522 592.55078125 685.44140625 C595.50466564 684.9090475 598.10695632 683.89653186 600.89624023 682.80493164 C602.87135922 682.04921999 604.85113828 681.38310485 606.8671875 680.74609375 C622.70723242 675.63849545 636.53994367 668.06125898 649 657 C649.8559375 656.32453125 650.711875 655.6490625 651.59375 654.953125 C675.14230086 635.83904151 685.65338214 603.13711276 688.71448159 574.12816727 C689.17493202 569.0834279 689.39146608 564.03911336 689.57003784 558.9775238 C689.61103729 557.85447922 689.65203674 556.73143464 689.6942786 555.5743584 C690.1185106 542.98229304 690.14062751 530.39497592 690.12939453 517.79711914 C690.13075427 515.18641129 690.13253739 512.57570364 690.13470459 509.96499634 C690.13909851 503.67355074 690.13821354 497.38211722 690.13529195 491.09067119 C690.13300743 485.95156929 690.13273839 480.81247072 690.13381577 475.67336845 C690.133969 474.93394244 690.13412223 474.19451643 690.13428011 473.43268357 C690.13459995 471.92891475 690.13492416 470.42514593 690.1352527 468.92137711 C690.13809017 454.88523013 690.13485044 440.84908972 690.12945233 426.81294381 C690.12500924 414.8944169 690.1257429 402.97589977 690.13037109 391.05737305 C690.13578853 377.1006075 690.13779149 363.14384773 690.13475883 349.18708128 C690.13444042 347.68206275 690.13412605 346.17704421 690.13381577 344.67202568 C690.13366149 343.93226958 690.13350721 343.19251347 690.13334826 342.43034052 C690.13250254 337.33889987 690.1339283 332.24746308 690.13629532 327.15602303 C690.14737952 300.44861256 690.13753765 273.73932557 689.7275846 247.03450096 C689.69609586 244.90571767 689.66876652 242.77686745 689.64625382 240.64797032 C689.47573272 225.39753348 689.18355025 209.5106787 684 195 C683.44857064 192.17009514 683.0038157 189.33713171 682.5625 186.48828125 C682.10334484 183.76763434 682.10334484 183.76763434 680 181 C679.32507463 179.00277187 678.65925474 177.0024554 678 175 C665.59032309 147.22230215 643.28895184 125.35988111 615 114 C614.06655762 113.61932373 614.06655762 113.61932373 613.11425781 113.23095703 C599.21589695 107.69284725 584.78343533 105.77284456 570 104 C568.72465456 103.82980693 567.44930912 103.65961386 566.13531685 103.48426342 C559.96946267 102.80677617 553.81685605 102.85851299 547.62033081 102.86628723 C546.27602008 102.86441623 544.93170989 102.86211438 543.58740056 102.85942191 C539.91241634 102.85333242 536.23745497 102.85343415 532.56246686 102.85461628 C528.59077435 102.85482103 524.61908903 102.84929421 520.6473999 102.84455872 C512.87041935 102.83626544 505.09344639 102.8335044 497.31646179 102.83294634 C490.98630429 102.83247021 484.65614929 102.83041061 478.32599258 102.82724571 C460.34496558 102.81843996 442.36394454 102.81382579 424.38291536 102.81457619 C423.41431208 102.81461614 422.4457088 102.8146561 421.44775391 102.81469727 C419.99305542 102.81475859 419.99305542 102.81475859 418.50896908 102.81482115 C402.82434267 102.8152268 387.13974036 102.80567756 371.45512091 102.7915589 C355.31701612 102.77714785 339.17892304 102.77029142 323.04081166 102.77115268 C313.9941863 102.77148319 304.94758617 102.76880083 295.90096664 102.75797462 C288.19104039 102.74880682 280.48115076 102.74674506 272.77122138 102.75348405 C268.84736754 102.75671893 264.92358369 102.756918 260.99973679 102.7481308 C227.73134339 102.67837195 195.25127138 103.75650222 165 119 Z " fill="#FDF4E5" transform="translate(0,0)"/>
<path d="M0 0 C1.29073732 0.00669217 1.29073732 0.00669217 2.60755014 0.01351953 C3.51848004 0.01039954 4.42940993 0.00727956 5.36794376 0.00406504 C8.43888469 -0.00395098 11.50962999 0.00242267 14.58057261 0.00869775 C16.77464016 0.00598949 18.9687068 0.00242949 21.1627717 -0.00192237 C27.13576009 -0.01106824 33.10867968 -0.00749308 39.08166933 -0.0011642 C45.32011592 0.00388445 51.55855646 -0.00079248 57.79700327 -0.00393653 C68.94713434 -0.00781312 80.09724006 -0.00158129 91.24736506 0.00858214 C101.36414643 0.01751807 111.48088191 0.01596615 121.59766245 0.00674462 C133.33623797 -0.00395012 145.07479112 -0.00794686 156.81337166 -0.00203085 C163.03077119 0.00109404 169.24813907 0.00148402 175.46553659 -0.00510383 C181.30952538 -0.01086301 187.15342714 -0.00690665 192.99740648 0.00468469 C195.14771807 0.00733894 197.29803693 0.00655324 199.44834566 0.00215936 C202.37285205 -0.00326746 205.29707568 0.003503 208.22156382 0.01351953 C209.08205536 0.00905808 209.94254691 0.00459664 210.82911396 0 C216.68625695 0.03918678 216.68625695 0.03918678 218.91455698 2.26748681 C219.47591315 7.54423482 219.47591315 7.54423482 217.66846323 9.87295556 C215.10297518 11.91277568 212.39908109 12.42095998 209.26611948 13.22842431 C205.91781258 14.70790875 204.22361762 16.41452568 201.91455698 19.26748681 C201.4168378 22.24818232 201.22208432 24.66142733 201.25513315 27.63784814 C201.24464945 28.46763177 201.23416574 29.2974154 201.22336435 30.15234399 C201.19464651 32.88511724 201.20090184 35.61662114 201.20752573 38.34951806 C201.19440868 40.24810902 201.17910444 42.14668602 201.16170359 44.04524255 C201.12184145 49.03476339 201.11166235 54.02391927 201.10767221 59.01358056 C201.09834309 64.10809431 201.06093091 69.20239342 201.02588511 74.29678369 C200.96129686 84.28700802 200.92806689 94.27707196 200.91455698 104.26748681 C201.50470591 104.25177636 202.09485483 104.23606591 202.70288706 104.21987939 C205.37751284 104.15750742 208.05198562 104.11849024 210.72705698 104.07998681 C211.65582651 104.05485009 212.58459604 104.02971337 213.54151011 104.00381494 C214.43418589 103.99414697 215.32686167 103.984479 216.24658823 103.97451806 C217.06876841 103.95880761 217.89094858 103.94309716 218.73804331 103.92691064 C221.43481288 104.34889533 222.29792502 105.10274201 223.91455698 107.26748681 C224.25513315 109.90298486 224.25513315 109.90298486 224.20752573 113.02920556 C224.19785776 114.14746728 224.18818979 115.265729 224.17822886 116.41787744 C224.15309214 117.58512353 224.12795542 118.75236962 224.10205698 119.95498681 C224.08852182 121.13383447 224.07498667 122.31268212 224.06104136 123.52725244 C224.02565024 126.44112092 223.97627507 129.35407626 223.91455698 132.26748681 C225.02315073 132.22108056 226.13174448 132.17467431 227.27393198 132.12686181 C228.73744666 132.08933579 230.20099054 132.05293652 231.66455698 132.01748681 C232.39416636 131.98397119 233.12377573 131.95045556 233.87549448 131.91592431 C237.35956923 131.8525775 239.49099367 131.97824028 242.40283823 133.96670556 C244.1743312 136.66285378 244.42451969 138.12713497 244.35205698 141.32998681 C244.35012339 142.61582665 244.35012339 142.61582665 244.34815073 143.92764306 C243.82218738 146.76594978 243.16550267 147.50686735 240.91455698 149.26748681 C238.80134153 149.6435343 238.80134153 149.6435343 236.30586863 149.64501023 C235.35426198 149.65283347 234.40265533 149.66065672 233.42221212 149.66871703 C232.37465907 149.66202486 231.32710602 149.6553327 230.24780893 149.64843774 C228.5810497 149.6554577 228.5810497 149.6554577 226.88061857 149.66261947 C223.13790557 149.6746351 219.39555429 149.66508641 215.65283823 149.6556704 C212.97748343 149.65973319 210.302154 149.66496441 207.62680674 149.67160058 C201.10297303 149.68496 194.5792427 149.68205039 188.0554049 149.67336266 C182.75467294 149.66659518 177.45397 149.66566533 172.15323496 149.66893411 C171.02279653 149.66962366 171.02279653 149.66962366 169.86952096 149.67032713 C168.33867875 149.67128628 166.80783654 149.67225892 165.27699435 149.67324491 C150.91285065 149.68180527 136.54876433 149.67195456 122.18463004 149.65584381 C109.85206392 149.64244003 97.51958251 149.64476794 85.18701792 149.65860009 C70.87525617 149.67464452 56.56354475 149.68098124 42.25177526 149.6717633 C40.72647652 149.67080763 39.20117776 149.66986451 37.675879 149.66893411 C36.92534811 149.66847128 36.17481722 149.66800845 35.40154296 149.6675316 C30.10546384 149.66493829 24.80941657 149.66932003 19.51334238 149.67637277 C13.06163365 149.68477536 6.61003445 149.68253391 0.15833831 149.66653053 C-3.1352097 149.65863093 -6.42853653 149.657192 -9.72208929 149.66547799 C-13.28780936 149.67362421 -16.85300848 149.66345549 -20.41869497 149.64843774 C-21.46624803 149.6551299 -22.51380108 149.66182207 -23.59309816 149.66871703 C-24.54470481 149.66089378 -25.49631145 149.65307054 -26.47675467 149.64501023 C-27.30026073 149.64452318 -28.12376678 149.64403612 -28.97222757 149.6435343 C-31.60475858 149.17507441 -32.48841982 148.37937189 -34.08544302 146.26748681 C-34.51903677 143.67373681 -34.51903677 143.67373681 -34.52294302 140.76748681 C-34.54227896 139.80842431 -34.56161489 138.84936181 -34.58153677 137.86123681 C-34.08544302 135.26748681 -34.08544302 135.26748681 -32.57372427 133.43545556 C-29.02788141 131.77108034 -25.6631963 131.94811192 -21.83544302 132.07998681 C-21.09036489 132.09352197 -20.34528677 132.10705712 -19.57763052 132.12100244 C-17.74658886 132.15621478 -15.91592133 132.21001831 -14.08544302 132.26748681 C-14.10115347 131.52587304 -14.11686392 130.78425927 -14.13305044 130.02017236 C-14.19535016 126.66518785 -14.23441809 123.31032495 -14.27294302 119.95498681 C-14.29807974 118.78774072 -14.32321646 117.62049462 -14.34911489 116.41787744 C-14.35878286 115.29961572 -14.36845083 114.181354 -14.37841177 113.02920556 C-14.39412222 111.99755273 -14.40983267 110.9658999 -14.42601919 109.90298486 C-14.08544302 107.26748681 -14.08544302 107.26748681 -12.85590506 105.62107873 C-10.5663113 103.870589 -9.27653048 103.91988641 -6.41747427 103.97451806 C-5.52479849 103.98418603 -4.63212271 103.993854 -3.71239614 104.00381494 C-2.78362661 104.02895165 -1.85485708 104.05408837 -0.89794302 104.07998681 C0.04242807 104.09352197 0.98279917 104.10705712 1.95166636 104.12100244 C4.27320736 104.15635585 6.59359351 104.20570007 8.91455698 104.26748681 C8.85330387 93.54908633 8.77616718 82.8309285 8.67884207 72.1127913 C8.63414546 67.13572716 8.59488769 62.15874474 8.56812143 57.18154931 C8.54208149 52.37681531 8.50167401 47.57239592 8.45137072 42.76785684 C8.43470671 40.93632066 8.42318953 39.10473008 8.41694307 37.27312875 C8.40729691 34.70434489 8.37923185 32.13636503 8.34693003 29.56777978 C8.34836512 28.81324014 8.34980021 28.05870049 8.35127878 27.28129601 C8.26741789 22.55507775 7.40175071 19.29036994 4.91455698 15.26748681 C2.47756713 13.52677978 0.20901932 13.07285573 -2.71044302 12.26748681 C-6.08544302 11.26748681 -6.08544302 11.26748681 -8.08544302 9.26748681 C-8.33544302 5.76748681 -8.33544302 5.76748681 -8.08544302 2.26748681 C-5.45725582 -0.36070039 -3.57781996 0.02393714 0 0 Z " fill="#4D3120" transform="translate(290.08544301986694,423.7325131893158)"/>
<path d="M0 0 C0.65726074 0.18288574 1.31452148 0.36577148 1.99169922 0.55419922 C28.24044898 7.97802345 54.20386962 20.17926727 75 38 C76.15713074 38.97315747 77.31471619 39.94577441 78.47265625 40.91796875 C102.24487545 60.97666156 119.74267705 84.95704932 133 113 C133.80244141 114.67449219 133.80244141 114.67449219 134.62109375 116.3828125 C143.4402267 135.76199814 148.6908917 157.91393876 149.375 179.1875 C149.46669776 183.88037777 149.46669776 183.88037777 152.5 187.25 C153.655 187.8275 154.81 188.405 156 189 C161.94874096 194.16947784 165.96967662 200.16671714 169.375 207.1875 C169.85718994 208.15562622 169.85718994 208.15562622 170.34912109 209.14331055 C177.2655654 224.29335614 176.53335409 240.87072948 176.50097656 257.14990234 C176.49626768 259.87658823 176.51011857 262.60211127 176.54199219 265.32861328 C176.82476625 289.7981119 175.08779433 312.12990477 158.49609375 331.51953125 C154.46276109 335.52761613 149.98616987 338.31983825 145 341 C143.865625 341.639375 142.73125 342.27875 141.5625 342.9375 C135.79470761 344.65771878 129.54921 345.368981 123.8125 343.15625 C119.26790722 340.25711323 116.64849626 336.08126219 115 331 C114.42812732 326.38108256 114.45322956 321.80138522 114.48242188 317.15185547 C114.4769938 315.76140614 114.4698673 314.37096258 114.46118164 312.98052979 C114.44302985 309.22437715 114.44998079 305.4686666 114.46269798 301.71250677 C114.47286412 297.77285462 114.46342268 293.83323893 114.45715332 289.89358521 C114.4498891 283.28136433 114.45943409 276.66932255 114.47851562 270.05712891 C114.50030016 262.42024308 114.49321682 254.7837842 114.47121 247.14690864 C114.45304244 240.57851797 114.45050373 234.0102556 114.46096468 227.44184792 C114.46718989 223.52372052 114.46806183 219.60579368 114.45481873 215.68767929 C114.44324028 212.00535134 114.45132154 208.32357279 114.47439575 204.64130402 C114.48218233 202.65059661 114.47034524 200.65984258 114.45788574 198.66915894 C114.56081117 187.79655741 114.56081117 187.79655741 119 183 C123.31578947 179 123.31578947 179 127 179 C126.40500996 175.08188376 125.79727136 171.1658408 125.1875 167.25 C125.02185547 166.15816406 124.85621094 165.06632813 124.68554688 163.94140625 C118.91441602 127.1368359 101.47972411 95.76696129 76 69 C75.30777344 68.24332031 74.61554688 67.48664063 73.90234375 66.70703125 C46.83636618 38.07654631 7.27339535 22.43566314 -31 17 C-32.86785156 16.70802734 -32.86785156 16.70802734 -34.7734375 16.41015625 C-40.920351 15.67373846 -47.13154354 15.80825059 -53.3125 15.8125 C-53.97685059 15.81277191 -54.64120117 15.81304382 -55.32568359 15.81332397 C-103.87051923 15.9045572 -147.21239713 33.33361522 -183 66 C-183.81855469 66.74636719 -184.63710938 67.49273437 -185.48046875 68.26171875 C-216.1224715 97.6021143 -231.64689764 137.69842159 -237 179 C-236.24203125 179.10570312 -235.4840625 179.21140625 -234.703125 179.3203125 C-231.80399266 180.04928508 -230.76797121 180.74019888 -228.75 182.875 C-228.24984375 183.38804687 -227.7496875 183.90109375 -227.234375 184.4296875 C-224.69887763 187.65522529 -224.86880264 190.85740146 -224.85282898 194.78718567 C-224.84567368 195.99427689 -224.83851837 197.2013681 -224.83114624 198.44503784 C-224.82830604 199.78472875 -224.8255943 201.12441993 -224.82299805 202.46411133 C-224.81673228 203.8735216 -224.81008538 205.28293022 -224.80308533 206.69233704 C-224.7820577 211.32222343 -224.77168486 215.95211012 -224.76171875 220.58203125 C-224.75767085 222.1764242 -224.75355392 223.77081698 -224.74936867 225.36520958 C-224.73032065 232.85526232 -224.71608823 240.34530521 -224.7077567 247.83537751 C-224.69798224 256.47971038 -224.67165581 265.12378731 -224.63125581 273.76802999 C-224.60109464 280.4509337 -224.58628787 287.13376404 -224.58297569 293.81673449 C-224.58062538 297.80763937 -224.57166761 301.79827072 -224.54651451 305.78910255 C-224.52322822 309.54434378 -224.51900251 313.29913147 -224.52927589 317.05442619 C-224.52977122 318.43066034 -224.52345154 319.80691685 -224.50971985 321.18308258 C-224.3882861 334.07703439 -224.3882861 334.07703439 -229 339 C-234.1765799 343.56032039 -237.19765222 344.362139 -243.9921875 344.2734375 C-255.74145227 343.20532252 -264.78260844 335.08082916 -272.1484375 326.453125 C-285.9461973 308.17254872 -286.53392023 285.22682287 -286.44604492 263.24804688 C-286.43750859 260.00326497 -286.46647213 256.76023589 -286.49804688 253.515625 C-286.57458514 230.59040096 -283.39551863 208.67128231 -267.375 191.125 C-265 189 -265 189 -262.43017578 187.27978516 C-259.30425198 184.34730812 -259.18229171 182.61682767 -258.7421875 178.3984375 C-258.59136719 177.10292969 -258.44054687 175.80742187 -258.28515625 174.47265625 C-258.14704715 173.10691072 -258.01033657 171.74102306 -257.875 170.375 C-256.18728323 154.44741322 -256.18728323 154.44741322 -253.66967773 147.0925293 C-252.96254282 144.88295827 -252.55379473 142.72626204 -252.1875 140.4375 C-246.57902951 111.40009632 -228.91091669 82.73466712 -209.10546875 61.29296875 C-207.23791796 59.25910546 -205.4601578 57.17852977 -203.6875 55.0625 C-190.55302606 40.05598609 -174.11665009 28.93188338 -157 19 C-156.36336426 18.62601074 -155.72672852 18.25202148 -155.07080078 17.86669922 C-140.46949125 9.36332976 -124.27635265 3.42127289 -108 -1 C-107.04222656 -1.26296875 -106.08445312 -1.5259375 -105.09765625 -1.796875 C-71.09384426 -10.37441316 -33.7231286 -9.52291805 0 0 Z " fill="#4F3322" transform="translate(450,198)"/>
<path d="M0 0 C5.75 0.75 5.75 0.75 8 3 C8.20534848 5.07695324 8.31419166 7.16380607 8.375 9.25 C9.51170581 27.54910009 17.63703319 43.87181223 29 58 C29.51691406 58.680625 30.03382813 59.36125 30.56640625 60.0625 C40.19544719 72.0324356 53.78946362 80.74214312 68.3984375 85.0078125 C72.50010476 86.57211203 72.50010476 86.57211203 74 89 C73.95278408 92.58368823 73.63257351 94.35310898 71.1015625 96.94140625 C64.98221915 100.94697011 58.81030726 104.31013012 52 107 C50.73618594 107.51899337 50.73618594 107.51899337 49.44684029 108.04847145 C44.96551036 109.28557936 40.8370064 109.28313839 36.20993042 109.26742554 C35.22913454 109.27195665 34.24833866 109.27648776 33.2378217 109.28115618 C29.95390995 109.29380829 26.67016388 109.29217925 23.38623047 109.29052734 C21.03045946 109.29651219 18.67469041 109.30331763 16.31892395 109.31088257 C9.91990679 109.32855692 3.52094311 109.33323864 -2.8780961 109.33451414 C-6.87802252 109.33550311 -10.87794226 109.3400776 -14.87786484 109.34550858 C-28.1179792 109.36311822 -41.35806119 109.37234823 -54.59818734 109.37084763 C-55.66816859 109.37072776 -55.66816859 109.37072776 -56.75976562 109.37060547 C-57.83106176 109.37048283 -57.83106176 109.37048283 -58.92400025 109.37035771 C-70.48741718 109.36954556 -82.05070362 109.38866603 -93.61408283 109.4168822 C-105.50207045 109.44566021 -117.38999456 109.4594197 -129.27801788 109.45769465 C-135.9461964 109.4570323 -142.61425734 109.46284851 -149.28241348 109.48405075 C-155.55827493 109.50346027 -161.83384844 109.50353871 -168.10972023 109.48901749 C-170.40742095 109.48693149 -172.70513982 109.49161768 -175.00280952 109.5037384 C-197.21614292 109.61328605 -197.21614292 109.61328605 -207 105 C-207.67351564 104.70390524 -208.34703129 104.40781048 -209.0409565 104.10274315 C-210.72645447 103.32265649 -212.36663561 102.44655848 -214 101.5625 C-215.051875 101.00691406 -216.10375 100.45132813 -217.1875 99.87890625 C-220.18235556 97.87817635 -222.01268537 95.99294372 -224 93 C-223.93181956 90.1364214 -223.53212103 88.66847704 -221.75 86.4296875 C-219.55626875 84.63748742 -217.82946125 84.31883198 -215.0625 83.75 C-195.59455195 78.77400274 -180.23349456 62.29383325 -170.07421875 45.66015625 C-166.78446 40.02638782 -164.33669508 34.08592608 -162 28 C-161.67128906 27.22398437 -161.34257812 26.44796875 -161.00390625 25.6484375 C-158.65792292 19.65439397 -158.56052204 13.62153417 -158.40625 7.2578125 C-158 4 -158 4 -156.64453125 2.09765625 C-155 1 -155 1 -152.1875 0.3125 C-148.43357047 1.12217108 -148.08906318 1.79587533 -145.9375 4.8125 C-145.49277344 5.52019531 -145.04804688 6.22789062 -144.58984375 6.95703125 C-142.13282181 10.11433462 -139.42406338 11.78945405 -135.44655609 12.37752342 C-134.0805212 12.37922004 -134.0805212 12.37922004 -132.68688965 12.38095093 C-131.10976448 12.39364014 -131.10976448 12.39364014 -129.5007782 12.40658569 C-127.78626213 12.39747665 -127.78626213 12.39747665 -126.03710938 12.38818359 C-124.82521439 12.39344055 -123.6133194 12.39869751 -122.36470032 12.40411377 C-119.04845263 12.41504365 -115.73276757 12.41249824 -112.41655159 12.40297651 C-108.94220359 12.3953684 -105.46787924 12.40242872 -101.99353027 12.40713501 C-96.15954281 12.41258922 -90.32566936 12.40540979 -84.49169922 12.39111328 C-77.75183966 12.37478731 -71.01225238 12.38007607 -64.27239943 12.3965925 C-58.48031268 12.41021696 -52.68830779 12.41212236 -46.89621019 12.40427649 C-43.43919952 12.39960522 -39.98231673 12.39895999 -36.52531433 12.40888596 C-32.67106586 12.41917998 -28.81712111 12.40490247 -24.96289062 12.38818359 C-23.81987991 12.39425629 -22.6768692 12.40032898 -21.4992218 12.40658569 C-20.44780502 12.39812622 -19.39638824 12.38966675 -18.31311035 12.38095093 C-17.40242043 12.37981985 -16.4917305 12.37868877 -15.55344391 12.37752342 C-12.47827719 11.92286395 -10.5915551 10.66844526 -8 9 C-7.34 9 -6.68 9 -6 9 C-5.62875 8.1646875 -5.62875 8.1646875 -5.25 7.3125 C-3.78393985 4.60028873 -1.97010529 2.36412635 0 0 Z " fill="#4F3221" transform="translate(470,303)"/>
<path d="M0 0 C69.3 0 138.6 0 210 0 C210 4.95 210 9.9 210 15 C140.7 15 71.4 15 0 15 C0 10.05 0 5.1 0 0 Z " fill="#F2E7CE" transform="translate(290,542)"/>
<path d="M0 0 C15.84 0 31.68 0 48 0 C48 18.81 48 37.62 48 57 C32.16 57 16.32 57 0 57 C0 38.19 0 19.38 0 0 Z " fill="#FCF0D4" transform="translate(371,471)"/>
<path d="M0 0 C15.18 0 30.36 0 46 0 C46 18.81 46 37.62 46 57 C30.82 57 15.64 57 0 57 C0 38.19 0 19.38 0 0 Z " fill="#FEF2D3" transform="translate(312,471)"/>
<path d="M0 0 C14.85 0 29.7 0 45 0 C45 18.81 45 37.62 45 57 C30.15 57 15.3 57 0 57 C0 38.19 0 19.38 0 0 Z " fill="#FEF2D3" transform="translate(432,471)"/>
<path d="M0 0 C3.41385303 2.77309907 4.86753781 6.61507205 6.6875 10.5 C19.51694912 36.91898594 41.90778106 54.77698261 69 65 C89.55795949 71.9731238 111.77043359 73.16065027 133.311203 73.13371277 C134.68345413 73.13558716 136.05570472 73.13789033 137.42795449 73.14057809 C141.15218229 73.14662488 144.8763874 73.14657103 148.60061896 73.14538372 C152.63554383 73.14517789 156.67046175 73.15071565 160.7053833 73.15544128 C168.59283088 73.16370892 176.48027098 73.16649435 184.36772253 73.16705366 C190.78548159 73.16753063 197.2032382 73.16959433 203.62099648 73.17275429 C221.85845919 73.18154985 240.09591605 73.18617533 258.3333809 73.18542381 C259.31431491 73.18538386 260.29524892 73.1853439 261.3059082 73.18530273 C262.28805419 73.18526185 263.27020018 73.18522097 264.28210817 73.18517885 C280.19147481 73.18477258 296.10081777 73.19434027 312.01017758 73.2084411 C328.38689042 73.22284044 344.76359173 73.22970935 361.14031106 73.22884732 C370.31809606 73.22851661 379.49585622 73.23120854 388.67363548 73.24202538 C396.48817163 73.2511773 404.30267167 73.25326736 412.11721089 73.24651595 C416.09541658 73.2432744 420.07355318 73.24310729 424.05175209 73.2518692 C443.53976456 73.29212774 463.01890158 73.27285386 482.1875 69.25 C483.00371826 69.08081055 483.81993652 68.91162109 484.66088867 68.73730469 C512.84568823 62.58511232 538.36096155 47.44040699 554.34985352 23.00292969 C559.02808782 15.59235036 563.04150978 7.81180316 567 0 C568 3 568 3 567.33837891 4.89428711 C566.97147949 5.5981958 566.60458008 6.30210449 566.2265625 7.02734375 C565.81833252 7.81391357 565.41010254 8.6004834 564.98950195 9.41088867 C564.31407349 10.66156128 564.31407349 10.66156128 563.625 11.9375 C563.16891357 12.79126221 562.71282715 13.64502441 562.24291992 14.5246582 C558.40633057 21.55320493 554.11212537 27.82284851 549 34 C548.46375 34.69867187 547.9275 35.39734375 547.375 36.1171875 C532.99628987 54.01868161 509.43129547 65.48181948 487.765625 71.23828125 C485.06832727 71.8851463 485.06832727 71.8851463 483 73 C480.22834553 73.3770157 477.46817876 73.70705606 474.6875 74 C473.94693359 74.0825 473.20636719 74.165 472.44335938 74.25 C460.82216023 75.50953725 449.30900737 76.14646458 437.61836243 76.11352539 C436.21438559 76.11324466 434.81040861 76.11340975 433.40643185 76.11397648 C429.58591972 76.11426935 425.76543933 76.10837611 421.94493449 76.10140657 C417.81080026 76.0949902 413.67666468 76.09446019 409.54252625 76.0932312 C402.39181834 76.09035443 395.24112086 76.08393196 388.09041786 76.07516479 C377.74971123 76.06257933 367.40900842 76.05652708 357.06829538 76.05223143 C340.28551744 76.04517654 323.50274434 76.03438209 306.7199707 76.02050781 C305.71701905 76.01968 304.7140674 76.01885219 303.68072327 76.01799929 C296.5579821 76.01209619 289.43524104 76.00606021 282.3125 76 C274.1569825 75.99306602 266.00146495 75.98620124 257.84594727 75.97949219 C256.33835983 75.97825 256.33835983 75.97825 254.80031607 75.97698271 C238.0644126 75.96331472 221.32850905 75.95354737 204.59260148 75.94658184 C194.27105352 75.94209488 183.94951982 75.93404306 173.62797853 75.92143703 C166.56796673 75.91303495 159.50795822 75.90812604 152.44794176 75.90601182 C148.37073397 75.90466228 144.29354464 75.90162451 140.21634293 75.89425278 C136.48938137 75.8875393 132.7624466 75.88536022 129.03547957 75.88688838 C127.03833892 75.88648541 125.04120122 75.88110167 123.04406816 75.87558079 C121.28403908 75.87764231 121.28403908 75.87764231 119.48845387 75.87974548 C118.46949648 75.87882369 117.45053909 75.8779019 116.40070421 75.87695217 C113.98615619 75.83990372 113.98615619 75.83990372 112 77 C112 76.34 112 75.68 112 75 C111.34660645 75.02465332 110.69321289 75.04930664 110.02001953 75.07470703 C102.72323897 75.22820127 96.00750619 74.36177281 88.875 72.875 C87.23966309 72.53831299 87.23966309 72.53831299 85.57128906 72.19482422 C55.36180047 65.7175466 28.22220904 49.61007668 11.0390625 23.44921875 C1.38107389 7.53836167 1.38107389 7.53836167 0 0 Z " fill="#D9CBB9" transform="translate(111,612)"/>
<path d="M0 0 C15.84 0 31.68 0 48 0 C48 6.6 48 13.2 48 20 C32.16 20 16.32 20 0 20 C0 13.4 0 6.8 0 0 Z " fill="#FEF2D3" transform="translate(371,438)"/>
<path d="M0 0 C15.18 0 30.36 0 46 0 C46 6.6 46 13.2 46 20 C30.82 20 15.64 20 0 20 C0 13.4 0 6.8 0 0 Z " fill="#FEF2D4" transform="translate(312,438)"/>
<path d="M0 0 C15.18 0 30.36 0 46 0 C46 6.6 46 13.2 46 20 C30.82 20 15.64 20 0 20 C0 13.4 0 6.8 0 0 Z " fill="#FEF2D4" transform="translate(432,438)"/>
<path d="M0 0 C3.41385303 2.77309907 4.86753781 6.61507205 6.6875 10.5 C19.51694912 36.91898594 41.90778106 54.77698261 69 65 C89.44095231 71.93343574 111.53122988 73.14077884 132.95225525 73.15821838 C134.27180838 73.16315636 135.5913615 73.16809434 136.95090109 73.17318195 C140.56551144 73.18658293 144.18011256 73.19412806 147.79474103 73.20060861 C151.71068024 73.20869326 155.62660069 73.22236258 159.54252625 73.23532104 C166.31122683 73.25697071 173.07992942 73.27515661 179.84864616 73.29092598 C189.63482785 73.31373038 199.42098868 73.34185794 209.20715255 73.37124526 C225.08820638 73.41879241 240.96926879 73.46209107 256.8503418 73.50268555 C272.26864285 73.54210628 287.68693631 73.58354804 303.10522461 73.62768555 C304.05712234 73.63040982 305.00902007 73.63313409 305.98976319 73.63594092 C310.76560657 73.64962148 315.54144984 73.66334154 320.31729305 73.67708123 C359.87817951 73.79084348 399.43908234 73.89769715 439 74 C439 74.33 439 74.66 439 75 C438.3130693 75.00173625 437.6261386 75.0034725 436.91839182 75.00526136 C396.24320938 75.10819566 355.56804351 75.21628779 314.89289282 75.33111694 C310.01355625 75.34488721 305.13421957 75.3586142 300.25488281 75.37231445 C299.28345763 75.37504276 298.31203245 75.37777106 297.31117015 75.38058204 C281.56330271 75.42470754 265.81542806 75.46532375 250.06754799 75.50465261 C233.91965007 75.54505824 217.77176556 75.5892129 201.62388742 75.63687855 C191.6525353 75.66619311 181.68118423 75.69255165 171.70981465 75.71517897 C164.88047175 75.7309559 158.05114528 75.75036053 151.22182061 75.77266841 C147.2763545 75.78544751 143.3309011 75.7965788 139.38541985 75.80341911 C135.77820158 75.80970812 132.17102709 75.82051957 128.5638328 75.8350333 C126.6307053 75.84160505 124.69756301 75.84324342 122.76442492 75.84474558 C121.06029643 75.85295724 121.06029643 75.85295724 119.3217411 75.8613348 C118.33522769 75.86399284 117.34871427 75.86665089 116.3323065 75.86938947 C113.97612948 75.8467253 113.97612948 75.8467253 112 77 C112 76.34 112 75.68 112 75 C111.34660645 75.02465332 110.69321289 75.04930664 110.02001953 75.07470703 C102.72323897 75.22820127 96.00750619 74.36177281 88.875 72.875 C87.23966309 72.53831299 87.23966309 72.53831299 85.57128906 72.19482422 C55.36180047 65.7175466 28.22220904 49.61007668 11.0390625 23.44921875 C1.38107389 7.53836167 1.38107389 7.53836167 0 0 Z " fill="#E5D7C1" transform="translate(111,612)"/>
<path d="M0 0 C2.5625 0.1875 2.5625 0.1875 4.5625 2.1875 C5.46244645 4.55391657 6.30323875 6.91933517 7.125 9.3125 C11.79329338 22.21930176 18.53867329 33.59023852 27.19604492 44.22875977 C30.60357694 48.57216751 30.60357694 48.57216751 30.3671875 52.11328125 C30.10164063 52.79777344 29.83609375 53.48226562 29.5625 54.1875 C26.8359375 54.9453125 26.8359375 54.9453125 23.5625 55.1875 C11.05398631 46.20372213 3.67006135 27.86612959 -1.8125 13.875 C-2.08787598 13.19268311 -2.36325195 12.51036621 -2.64697266 11.80737305 C-4.12847801 7.89760437 -4.83613442 5.19541477 -3.4375 1.1875 C-2.4375 0.1875 -2.4375 0.1875 0 0 Z " fill="#F8EFD6" transform="translate(453.4375,338.8125)"/>
<path d="M0 0 C7.30952021 13.40913079 5.52490825 33.41355637 5.67919922 48.25634766 C5.71199389 50.51405045 5.7454353 52.77174393 5.77946281 55.02942848 C6.15278596 81.7831113 6.14753502 108.54094245 6.13530231 135.2967337 C6.13297313 140.50828511 6.13274639 145.71983326 6.13381577 150.93138504 C6.133969 151.68676273 6.13412223 152.44214041 6.13428011 153.22040833 C6.13459996 154.75685147 6.13492418 156.2932946 6.1352527 157.82973774 C6.13806565 172.04157127 6.13488447 186.25339821 6.12945233 200.46523066 C6.12496034 212.59336013 6.12578795 224.72148006 6.13037109 236.84960938 C6.13574417 251.07400183 6.13781991 265.29838865 6.13475883 279.52278197 C6.13444039 281.04288395 6.13412602 282.56298594 6.13381577 284.08308792 C6.13366149 284.83031144 6.13350721 285.57753496 6.13334826 286.34740161 C6.13249335 291.5529564 6.133923 296.75850752 6.13629532 301.96406174 C6.13912296 308.30494178 6.13829219 314.64580947 6.13301457 320.98668812 C6.13042134 324.20590654 6.12985307 327.4251007 6.13266373 330.64431953 C6.14202076 342.45899698 6.08329054 354.25596533 5.56613159 366.0609436 C5.52896691 366.9215547 5.49180224 367.7821658 5.45351136 368.66885602 C4.63489825 385.14558569 1.13997577 400.36382775 -4 416 C-4.66 415.67 -5.32 415.34 -6 415 C-5.82984375 414.41476562 -5.6596875 413.82953125 -5.484375 413.2265625 C1.68538168 387.82731809 3.30826866 363.5607265 3.26144934 337.2225405 C3.25686237 333.39327735 3.26393951 329.5640313 3.26940918 325.73477173 C3.27824301 318.25672208 3.27640709 310.77871288 3.2705839 303.30066174 C3.26603846 297.20685224 3.26546687 291.11305395 3.26763153 285.01924324 C3.26809123 283.71045554 3.26809123 283.71045554 3.26856022 282.37522768 C3.26919979 280.60165595 3.26984822 278.82808423 3.2705054 277.05451251 C3.27619244 260.46749321 3.26967907 243.88049611 3.25890467 227.29348046 C3.24999431 213.1400598 3.25150356 198.98667201 3.26074219 184.83325195 C3.27151478 168.32256359 3.27561859 151.8118947 3.26951766 135.30120331 C3.26888071 133.53013329 3.26825197 131.75906327 3.26763153 129.98799324 C3.26732298 129.11706674 3.26701443 128.24614025 3.26669653 127.34882204 C3.26498861 121.28812522 3.26784342 115.227441 3.27259064 109.16674614 C3.27827886 101.74252213 3.27652141 94.31834022 3.26602915 86.89412086 C3.260873 83.12465145 3.25853622 79.35525145 3.26532745 75.585783 C3.30702117 50.31724241 2.22832428 25.17478466 0 0 Z " fill="#ECDFD0" transform="translate(684,197)"/>
<path d="M0 0 C2.93453261 0.36681658 3.86437246 0.86437246 6 3 C4.7529543 20.98038685 -9.14090233 40.77361632 -20.5456543 53.76000977 C-22 55 -22 55 -24.5625 55.3125 C-27 55 -27 55 -29 53 C-28.72259356 48.82503314 -27.21947405 46.70059565 -24.5 43.625 C-14.79843181 31.89287103 -8.26727494 18.34813776 -2.93359375 4.1640625 C-2 2 -2 2 0 0 Z " fill="#F8EFD7" transform="translate(335,339)"/>
<path d="M0 0 C1.29073732 0.00669217 1.29073732 0.00669217 2.60755014 0.01351953 C3.51848004 0.01039954 4.42940993 0.00727956 5.36794376 0.00406504 C8.43888469 -0.00395098 11.50962999 0.00242267 14.58057261 0.00869775 C16.77464016 0.00598949 18.9687068 0.00242949 21.1627717 -0.00192237 C27.13576009 -0.01106824 33.10867968 -0.00749308 39.08166933 -0.0011642 C45.32011592 0.00388445 51.55855646 -0.00079248 57.79700327 -0.00393653 C68.94713434 -0.00781312 80.09724006 -0.00158129 91.24736506 0.00858214 C101.36414643 0.01751807 111.48088191 0.01596615 121.59766245 0.00674462 C133.33623797 -0.00395012 145.07479112 -0.00794686 156.81337166 -0.00203085 C163.03077119 0.00109404 169.24813907 0.00148402 175.46553659 -0.00510383 C181.30952538 -0.01086301 187.15342714 -0.00690665 192.99740648 0.00468469 C195.14771807 0.00733894 197.29803693 0.00655324 199.44834566 0.00215936 C202.37285205 -0.00326746 205.29707568 0.003503 208.22156382 0.01351953 C209.08205536 0.00905808 209.94254691 0.00459664 210.82911396 0 C216.68625695 0.03918678 216.68625695 0.03918678 218.91455698 2.26748681 C219.47254385 7.5125634 219.47254385 7.5125634 217.71924448 9.88467431 C215.42437799 11.6430785 213.56504555 11.97584588 210.72705698 12.45498681 C209.82600229 12.6135415 208.92494761 12.77209619 207.99658823 12.93545556 C207.30951792 13.04502587 206.62244761 13.15459619 205.91455698 13.26748681 C209.13030414 10.71586135 211.96367889 9.4347917 215.91455698 8.26748681 C215.91455698 6.61748681 215.91455698 4.96748681 215.91455698 3.26748681 C142.65455698 3.26748681 69.39455698 3.26748681 -6.08544302 3.26748681 C-6.08544302 4.91748681 -6.08544302 6.56748681 -6.08544302 8.26748681 C-4.10544302 8.92748681 -2.12544302 9.58748681 -0.08544302 10.26748681 C-0.08544302 10.59748681 -0.08544302 10.92748681 -0.08544302 11.26748681 C-2.96044302 11.39248681 -2.96044302 11.39248681 -6.08544302 11.26748681 C-8.08544302 9.26748681 -8.08544302 9.26748681 -8.33544302 5.76748681 C-7.9056041 -0.25025805 -5.41841504 0.03625151 0 0 Z " fill="#3C291A" transform="translate(290.08544301986694,423.7325131893158)"/>
<path d="M0 0 C2.93453261 0.36681658 3.86437246 0.86437246 6 3 C6.20875427 12.98371526 4.45112577 23.16140836 2.953125 33.01098633 C2.61973795 35.22240417 2.30577714 37.43608855 1.9921875 39.65039062 C1.779809 41.07309079 1.56631035 42.4956243 1.3515625 43.91796875 C1.16416504 45.18406982 0.97676758 46.4501709 0.78369141 47.75463867 C0.00759942 50.96852986 -0.68828179 52.66925087 -3 55 C-5.5 55.4375 -5.5 55.4375 -8 55 C-9.6640625 53.7109375 -9.6640625 53.7109375 -11 52 C-10.74419395 44.19791555 -8.70105698 36.59429228 -7 29 C-5.18643152 20.87021024 -3.58585233 12.81332297 -2.52734375 4.546875 C-2 2 -2 2 0 0 Z " fill="#F5ECD5" transform="translate(373,339)"/>
<path d="M0 0 C4.55555556 0.55555556 4.55555556 0.55555556 6 2 C6.26118253 3.39203937 6.46717875 4.79453545 6.6484375 6.19921875 C6.76509766 7.0720752 6.88175781 7.94493164 7.00195312 8.84423828 C7.12505859 9.78251465 7.24816406 10.72079102 7.375 11.6875 C8.83524149 22.3317973 10.70585141 32.67756888 13.75 43 C14.89077544 47.00158016 15.21493524 49.91339964 14 54 C10.535 54.495 10.535 54.495 7 55 C4.58339074 50.61653931 3.3570345 46.735347 2.5 41.8125 C2.38035889 41.12833008 2.26071777 40.44416016 2.13745117 39.73925781 C1.882911 38.26725811 1.6333026 36.79439859 1.38818359 35.32080078 C0.98806021 32.92861658 0.56668455 30.54072973 0.14453125 28.15234375 C-3.0581524 9.57197365 -3.0581524 9.57197365 -2 2 C-1.34 1.34 -0.68 0.68 0 0 Z " fill="#F5ECD5" transform="translate(413,339)"/>
<path d="M0 0 C15.18 0 30.36 0 46 0 C46 18.81 46 37.62 46 57 C30.82 57 15.64 57 0 57 C0 38.19 0 19.38 0 0 Z M2 2 C2 19.49 2 36.98 2 55 C15.86 55 29.72 55 44 55 C44 37.51 44 20.02 44 2 C30.14 2 16.28 2 2 2 Z " fill="#F0E8D8" transform="translate(312,471)"/>
<path d="M0 0 C14.85 0 29.7 0 45 0 C45 18.81 45 37.62 45 57 C30.15 57 15.3 57 0 57 C0 38.19 0 19.38 0 0 Z M2 2 C2 19.49 2 36.98 2 55 C15.86 55 29.72 55 44 55 C44 37.51 44 20.02 44 2 C30.14 2 16.28 2 2 2 Z " fill="#F4F0E3" transform="translate(432,471)"/>
<path d="M0 0 C1 3 1 3 0.33837891 4.89428711 C-0.21197021 5.95015015 -0.21197021 5.95015015 -0.7734375 7.02734375 C-1.18166748 7.81391357 -1.58989746 8.6004834 -2.01049805 9.41088867 C-2.46078369 10.24467041 -2.91106934 11.07845215 -3.375 11.9375 C-4.05912964 13.21814331 -4.05912964 13.21814331 -4.75708008 14.5246582 C-8.59366943 21.55320493 -12.88787463 27.82284851 -18 34 C-18.53625 34.69867187 -19.0725 35.39734375 -19.625 36.1171875 C-34.00371013 54.01868161 -57.56870453 65.48181948 -79.234375 71.23828125 C-81.93167273 71.8851463 -81.93167273 71.8851463 -84 73 C-86.77182609 73.37703904 -89.5315302 73.70827998 -92.3125 74 C-93.53102661 74.13027588 -93.53102661 74.13027588 -94.77416992 74.26318359 C-105.88154085 75.43076642 -116.8228179 76.16463934 -128 76 C-127.505 75.01 -127.505 75.01 -127 74 C-124.26635742 73.56103516 -124.26635742 73.56103516 -120.60546875 73.2890625 C-119.25330882 73.18027627 -117.90117775 73.07113082 -116.54907227 72.96166992 C-115.48089767 72.8800209 -115.48089767 72.8800209 -114.3911438 72.79672241 C-78.58153632 70.00620238 -45.10705798 61.29992591 -20.30419922 33.55419922 C-11.8672676 23.50000478 -5.89952068 11.64229081 0 0 Z " fill="#E1D3C0" transform="translate(678,612)"/>
<path d="M0 0 C15.84 0 31.68 0 48 0 C48 6.6 48 13.2 48 20 C32.16 20 16.32 20 0 20 C0 13.4 0 6.8 0 0 Z M2 2 C2 7.61 2 13.22 2 19 C16.52 19 31.04 19 46 19 C46 13.39 46 7.78 46 2 C31.48 2 16.96 2 2 2 Z " fill="#E6E3DD" transform="translate(371,438)"/>
<path d="M0 0 C15.18 0 30.36 0 46 0 C46 6.6 46 13.2 46 20 C30.82 20 15.64 20 0 20 C0 13.4 0 6.8 0 0 Z M2 2 C2 7.61 2 13.22 2 19 C15.86 19 29.72 19 44 19 C44 13.39 44 7.78 44 2 C30.14 2 16.28 2 2 2 Z " fill="#E1DED8" transform="translate(432,438)"/>
<path d="M0 0 C15.18 0 30.36 0 46 0 C46 0.66 46 1.32 46 2 C31.48 2 16.96 2 2 2 C2 7.61 2 13.22 2 19 C16.52 18.67 31.04 18.34 46 18 C46 18.66 46 19.32 46 20 C30.82 20 15.64 20 0 20 C0 13.4 0 6.8 0 0 Z " fill="#E4DFD8" transform="translate(312,438)"/>
<path d="M0 0 C2.93453261 0.36681658 3.86437246 0.86437246 6 3 C5.67252316 7.84665725 4.40780465 12.43729514 1 16 C1.66666667 12 2.33333333 8 3 4 C0.47636012 4.62533375 0.47636012 4.62533375 -2 6 C-2.89386164 8.54775306 -2.89386164 8.54775306 -3 11 C-3.66 11 -4.32 11 -5 11 C-4.54917531 9.53932801 -4.08906463 8.08151968 -3.625 6.625 C-3.36976563 5.81289063 -3.11453125 5.00078125 -2.8515625 4.1640625 C-2 2 -2 2 0 0 Z " fill="#ECE8DF" transform="translate(335,339)"/>
<path d="M0 0 C3.78241838 1.57821187 6.25346705 3.9885462 9.1875 6.8125 C13.80232204 11.098578 18.30669948 14.32906889 24 17 C24 17.66 24 18.32 24 19 C15.15460605 15.86028359 6.42468197 8.81126742 0 2 C0 1.34 0 0.68 0 0 Z " fill="#EAE7DF" transform="translate(503,365)"/>
<path d="M0 0 C0.33 0 0.66 0 1 0 C1.33 8.58 1.66 17.16 2 26 C-1.21341369 27.60670684 -4.62958968 26.82510855 -8.125 26.5625 C-8.87910156 26.51029297 -9.63320313 26.45808594 -10.41015625 26.40429688 C-12.2737937 26.27454996 -14.13694996 26.13792512 -16 26 C-16 25.67 -16 25.34 -16 25 C-10.72 25 -5.44 25 0 25 C0 16.75 0 8.5 0 0 Z " fill="#5F4C3C" transform="translate(276,531)"/>
<path d="M0 0 C0.66 0.33 1.32 0.66 2 1 C-0.08906965 4.86038436 -2.35798817 7.46552611 -5.6875 10.3125 C-6.49574219 11.00988281 -7.30398437 11.70726562 -8.13671875 12.42578125 C-8.75160156 12.94527344 -9.36648437 13.46476562 -10 14 C-10.66 13.67 -11.32 13.34 -12 13 C-8.04 8.71 -4.08 4.42 0 0 Z " fill="#40291D" transform="translate(251,248)"/>
<path d="M0 0 C0.33 0 0.66 0 1 0 C1.64894237 2.06152389 2.2940264 4.12426258 2.9375 6.1875 C3.47697266 7.91033203 3.47697266 7.91033203 4.02734375 9.66796875 C4.83756036 12.44353006 5.49134307 15.15687548 6 18 C5.34 18 4.68 18 4 18 C3.13007846 15.94409546 2.27962311 13.87994664 1.4375 11.8125 C0.96183594 10.66394531 0.48617188 9.51539063 -0.00390625 8.33203125 C-1.01536316 4.94860873 -1.04283184 3.31583059 0 0 Z " fill="#402A21" transform="translate(448,340)"/>
<path d="M0 0 C0.66 1.32 1.32 2.64 2 4 C1.38125 4.04125 0.7625 4.0825 0.125 4.125 C-0.57625 4.41375 -1.2775 4.7025 -2 5 C-3.11680706 7.84979639 -3.11680706 7.84979639 -4 11 C-5.625 13.375 -5.625 13.375 -7 15 C-6.68383092 8.83470299 -3.50784939 4.82731567 0 0 Z " fill="#3B271C" transform="translate(178,395)"/>
<path d="M0 0 C0.33 0.99 0.66 1.98 1 3 C-0.57934639 3.98558449 -2.16365173 4.96322541 -3.75 5.9375 C-5.07257813 6.75541016 -5.07257813 6.75541016 -6.421875 7.58984375 C-8.68399917 8.82715712 -10.48566325 9.53590513 -13 10 C-9.28249221 5.79759989 -4.68339021 3.00217321 0 0 Z " fill="#F3EEE0" transform="translate(291,244)"/>
<path d="M0 0 C0.66 0.33 1.32 0.66 2 1 C-0.95600447 3.49618156 -3.77886965 5.85257977 -7 8 C-9.1875 7.625 -9.1875 7.625 -11 7 C-9.21475351 5.80286983 -7.4215972 4.61752721 -5.625 3.4375 C-4.62726562 2.77621094 -3.62953125 2.11492188 -2.6015625 1.43359375 C-1.74304688 0.96050781 -0.88453125 0.48742187 0 0 Z " fill="#EEEADE" transform="translate(606,531)"/>
<path d="M0 0 C1.32 0 2.64 0 4 0 C3.690625 0.5775 3.38125 1.155 3.0625 1.75 C2.07070809 3.85026522 1.52511261 5.74951737 1 8 C0.67 8.66 0.34 9.32 0 10 C-1.58538318 7.48203847 -2.0373656 6.32134414 -1.6875 3.3125 C-1 1 -1 1 0 0 Z " fill="#F8F3E5" transform="translate(451,339)"/>
<path d="M0 0 C5.35152885 0.32433508 8.28280043 3.49704824 12 7 C11.34 7.66 10.68 8.32 10 9 C8.70756532 7.8758824 7.41607925 6.75067408 6.125 5.625 C5.40570312 4.99851562 4.68640625 4.37203125 3.9453125 3.7265625 C2.5923402 2.52573166 1.2791655 1.2791655 0 0 Z " fill="#E7E2D7" transform="translate(600,383)"/>
<path d="M0 0 C1 1 2 2 3 3 C3.515625 3.45375 4.03125 3.9075 4.5625 4.375 C6.40085705 6.45314275 7.20518442 8.35061474 8 11 C7.67 11.99 7.34 12.98 7 14 C5.82807953 12.04480616 4.6626071 10.0857461 3.5 8.125 C2.8503125 7.03445313 2.200625 5.94390625 1.53125 4.8203125 C0 2 0 2 0 0 Z " fill="#F0ECE2" transform="translate(459,367)"/>
<path d="M0 0 C0 0.66 0 1.32 0 2 C-0.804375 2.226875 -1.60875 2.45375 -2.4375 2.6875 C-3.283125 3.120625 -4.12875 3.55375 -5 4 C-5.89386164 6.54775306 -5.89386164 6.54775306 -6 9 C-6.66 9 -7.32 9 -8 9 C-7.7452486 7.68428397 -7.47065859 6.37239624 -7.1875 5.0625 C-7.03667969 4.33160156 -6.88585937 3.60070312 -6.73046875 2.84765625 C-6.48941406 2.23792969 -6.24835938 1.62820313 -6 1 C-3 0 -3 0 0 0 Z " fill="#EDE3CE" transform="translate(338,341)"/>
<path d="M0 0 C0.66 0.33 1.32 0.66 2 1 C-1.3 3.64 -4.6 6.28 -8 9 C-8.66 8.67 -9.32 8.34 -10 8 C-8.71064081 6.85157077 -7.41843421 5.70633773 -6.125 4.5625 C-5.04605469 3.60537109 -5.04605469 3.60537109 -3.9453125 2.62890625 C-2 1 -2 1 0 0 Z " fill="#311F16" transform="translate(273,230)"/>
<path d="M0 0 C0.99 0.33 1.98 0.66 3 1 C1.02 3.97 1.02 3.97 -1 7 C-1.66 6.67 -2.32 6.34 -3 6 C-2.42655063 3.13275314 -2.1385485 2.1385485 0 0 Z " fill="#482D1E" transform="translate(181,391)"/>
<path d="M0 0 C0.33 0 0.66 0 1 0 C2.03590199 5.05002222 2.10251672 9.87416389 2 15 C1.67 15 1.34 15 1 15 C0.855625 13.906875 0.71125 12.81375 0.5625 11.6875 C0.11711896 8.06877013 0.11711896 8.06877013 -1 5 C-0.5625 2.3125 -0.5625 2.3125 0 0 Z " fill="#6A5A4E" transform="translate(597,363)"/>
<path d="M0 0 C2.9375 0.375 2.9375 0.375 6 1 C6.33 1.66 6.66 2.32 7 3 C4.36 3.66 1.72 4.32 -1 5 C-0.67 3.35 -0.34 1.7 0 0 Z " fill="#543D2F" transform="translate(470,303)"/>
<path d="M0 0 C0.33 0 0.66 0 1 0 C1.25 6.625 1.25 6.625 -1 10 C-2.46726798 6.18510326 -1.43336419 3.70988378 0 0 Z " fill="#DBD6CC" transform="translate(166,417)"/>
</svg>
